#!OML:ASF F:\VICON\USERDATA\INSTALL\rory3\rory3.ASF
:FULLY-SPECIFIED
:DEGREES
1
root 0.4613404716261258 18.092100229646526 -30.65147819747562 6.985280426217584 -4.6720826341094135 1.9664978223490521
lfemur 20.2532073119823 -3.9147464431222514 -30.19570540416519
ltibia 32.65467449266346
lfoot 25.56356850900426 -21.642388859935302
ltoes -13.293124292735733
rfemur -41.4277577009383 3.135721362760573 22.77008812588848
rtibia 29.996543953979952
rfoot -4.1886882771447755 -1.341317930480744
rtoes -18.94832058580562
lowerback 12.76451276065717 -1.1963879474141002 -3.858725691280423
upperback -0.8243223258067327 -2.0421405224685527 1.1378833765479512
thorax -7.997018497964431 -0.8362473518929139 3.9131686158749757
lowerneck -17.51170265821495 -1.9149051524717486 -2.2005487490886777
upperneck 14.245704587734894 -2.2250360303587358 1.9477530440247521
head 7.390570883690945 -1.0611852736023903 0.693971706591738
lclavicle 3.072424194335101e-16 -4.306756351367877e-16
lhumerus -39.925273456182865 -13.903135127864305 95.64195639835214
lradius 116.01588930455256
lwrist 32.485521395709185
lhand -22.759617491112586 2.8464344658535397
lfingers 7.125020000000001
lthumb 3.6757043285783197 32.86683110668498
rclavicle 3.072424194335101e-16 -4.306756351367877e-16
rhumerus -72.10650114104845 3.7018281532801494 -92.49200536158418
rradius 100.02571472870581
rwrist -19.36819162102498
rhand -20.560999218273416 39.84118555645377
rfingers 7.125020000000001
rthumb 5.7978912700982335 9.962808839202825
2
root 0.4688589603870336 18.049323436341837 -29.632780372334246 6.630849849120661 -3.548830184590498 2.0884980264729487
lfemur 18.365045341590083 -4.797959668297501 -29.778850280840437
ltibia 39.03285219145832
lfoot 26.132353434314716 -21.913211442078065
ltoes -9.076717517546632
rfemur -40.77458451285577 1.9609417128390991 23.38041110061133
rtibia 28.715545068263353
rfoot -4.499237868773504 -2.8967359819093375
rtoes -20.926114116678658
lowerback 12.529188019510196 -2.380653632126798 -3.0450609365402386
upperback -0.5527090449439344 -3.2870775210930816 1.163337332845331
thorax -7.58785125320576 -1.5607308613776092 3.6563371507546623
lowerneck -17.227793471659837 -2.0246689210257447 -2.566346266785626
upperneck 13.863204339379742 -2.3132775993555454 2.0068650725740715
head 7.252221733277753 -1.1118067929756574 0.7414455577675823
lclavicle 3.0724242018963974e-16 -4.306756738214982e-16
lhumerus -40.12947435470397 -13.435221808997184 95.61986905541818
lradius 115.05661324929488
lwrist 32.57048461890157
lhand -23.233445090256904 2.7234324944786055
lfingers 7.125020000000001
lthumb 3.2179887462424532 32.747557969129545
rclavicle 3.0724242018963974e-16 -4.306756738214982e-16
rhumerus -69.18176351132806 3.252353242496847 -92.21747528305929
rradius 99.60697227880176
rwrist -19.46469891622375
rhand -19.743385429671928 39.546470611753335
rfingers 7.125020000000001
rthumb 6.587482988146782 9.681181460144833
3
root 0.472840626431988 17.970256879925913 -28.622831983629972 6.024794177310985 -3.585860324157066 1.5079754027770715
lfemur 15.936117310091907 -3.9659456861481273 -28.772807091227595
ltibia 45.554315005483424
lfoot 30.08381156651743 -21.700228704714377
ltoes -4.502189058019829
rfemur -39.57932201221478 1.389100251411341 24.742415983327238
rtibia 28.773872337114746
rfoot -3.3627817837007616 -3.704989441494958
rtoes -20.07070002555286
lowerback 13.221521441810658 -1.5051865523716894 -1.9526182271992794
upperback 0.04261183660571488 -2.069299278016101 0.906675863882472
thorax -7.3778397610002955 -1.0138139742299208 2.4154599230404483
lowerneck -19.667516029601018 -2.429435208120436 -1.3147194929573813
upperneck 14.291640066138212 -3.0939497594859624 1.7873446781914533
head 7.628467470289437 -1.4391011722961458 0.48343448784893966
lclavicle 3.072423093049333e-16 -4.3067564757114157e-16
lhumerus -39.02385511969942 -15.031870238536648 95.51388158968477
lradius 113.69015562922505
lwrist 32.59119914110705
lhand -23.440043119643107 3.1993795467602673
lfingers 7.125020000000001
lthumb 3.018387495800616 33.22301842934641
rclavicle 3.072423093049333e-16 -4.3067564757114157e-16
rhumerus -64.68939618915303 1.08156386867208 -91.97088350428187
rradius 99.24224717279658
rwrist -19.323285469729825
rhand -19.158123861691728 39.49344051571007
rfingers 7.125020000000001
rthumb 7.15256311960703 9.640596949865632
4
root 0.4766447794792009 17.818422767426842 -27.64167206320151 5.346116204763039 -4.443749637446521 0.5274156206915606
lfemur 12.979782542111815 -2.2773734630302878 -27.3534825029137
ltibia 52.568599013059114
lfoot 32.91312636968532 -19.65288450650199
ltoes -4.200734031402838
rfemur -38.929957414150095 0.6855964699710537 26.768321507521556
rtibia 30.82096688375863
rfoot -2.4978892748583545 -1.5556005273579707
rtoes -19.40948844221681
lowerback 13.17900900635452 -1.3791823617925227 -1.4358938900647382
upperback 0.20471206524382757 -1.762410697085399 1.3768652674590751
thorax -7.206142644038108 -0.8730719535188471 2.7187827848035404
lowerneck -18.026113753107783 -2.2204974626504854 -2.233095770794603
upperneck 13.67734535655818 -2.6564689733410622 2.072123935810107
head 7.283068964319465 -1.2475921125255114 0.7003624387714937
lclavicle 3.072422610483077e-16 -4.3067565378832717e-16
lhumerus -39.962053736133015 -13.09765448584372 95.70933073938807
lradius 112.18591194871698
lwrist 32.509334675708004
lhand -23.34510629880799 3.43865990424302
lfingers 7.125020000000001
lthumb 3.1100968121261867 33.461629988057474
rclavicle 3.072422610483077e-16 -4.3067565378832717e-16
rhumerus -62.263295257111366 1.6861688650961701 -91.93945291706599
rradius 98.76127674272104
rwrist -19.204558985088138
rhand -19.37548561646648 39.62341259542339
rfingers 7.125020000000001
rthumb 6.942712415207408 9.766121442559907
5
root 0.48131174470667015 17.615914607474526 -26.660700302696576 4.50540586688362 -5.021203024311092 -0.26186009103647834
lfemur 9.416050428081176 -0.29290827141967535 -25.582026915014737
ltibia 59.78985040930087
lfoot 33.476375896073634 -18.468056880873696
ltoes -1.2546312574354648
rfemur -38.62400068270622 0.36873495885106977 27.996302494677828
rtibia 34.678545358121035
rfoot -2.8754350240882514 3.8297093668459725
rtoes -6.2986269063894
lowerback 14.331029058498626 -0.7013653336367173 -0.26691519572223443
upperback 0.3546567068119554 -0.7375158643394075 1.192999438835307
thorax -7.603460082020504 -0.39391014502154387 1.5836973277412711
lowerneck -18.92567080736467 -2.4444525569487943 -1.9022090249833425
upperneck 14.318571155834475 -3.105691720319425 2.317743819425489
head 7.56870562698123 -1.4049282370497762 0.6973912110812197
lclavicle 3.0724240309575254e-16 -4.3067561648524826e-16
lhumerus -40.2299669228738 -13.261487160014202 95.66166021507019
lradius 110.51965086610745
lwrist 32.43008057692835
lhand -23.441530733644793 3.0684063981335132
lfingers 7.125020000000001
lthumb 3.0169658241958808 33.092320661756936
rclavicle 3.0724240309575254e-16 -4.3067561648524826e-16
rhumerus -58.675769605181785 0.8466269330588823 -92.19194076559532
rradius 98.22412827499068
rwrist -19.092439785728164
rhand -19.70817894826475 39.85431292244485
rfingers 7.125020000000001
rthumb 6.621466459032095 9.99096037623182
